PathFileType	4	(X/Y/Z)	SUBJ89_2_walk_RCNL2025.trc
DataRate	CameraRate	NumFrames	NumMarkers	Units	OrigDataRate	OrigDataStartFrame	OrigNumFrames
100	100	9	25	mm	100	240	274
Frame#	Time	R_Shoulder			L_Shoulder			C7			J_Notch			R_Elbow			L_Elbow			R_Wrist			L_Wrist			R_Asis			L_Asis			Sacral			Thoracic			Sternum			R_Thigh_Lateral			R_Knee_Lateral			R_Shank_Lateral			R_Ankle_Lateral			R_Heel			R_Toe			L_Thigh_Lateral			L_Knee_Lateral			L_Shank_Lateral			L_Ankle_Lateral			L_Heel			L_Toe		
		X1	Y1	Z1	X2	Y2	Z2	X3	Y3	Z3	X4	Y4	Z4	X5	Y5	Z5	X6	Y6	Z6	X7	Y7	Z7	X8	Y8	Z8	X9	Y9	Z9	X10	Y10	Z10	X11	Y11	Z11	X12	Y12	Z12	X13	Y13	Z13	X14	Y14	Z14	X15	Y15	Z15	X16	Y16	Z16	X17	Y17	Z17	X18	Y18	Z18	X19	Y19	Z19	X20	Y20	Z20	X21	Y21	Z21	X22	Y22	Z22	X23	Y23	Z23	X24	Y24	Z24	X25	Y25	Z25
240	2.39000000	2344.123047	1407.942627	15.201061	2331.298828	1421.813232	-398.206848	2269.873535	1503.920776	-184.389999	2390.054199	1379.654419	-191.903091	2217.475342	1093.019287	52.875481	2309.600586	1080.069458	-447.461548	2283.214233	829.895386	66.751534	2434.460938	843.022736	-427.690903	2371.369385	985.139160	-72.441338	2380.755615	983.231018	-309.644775	2206.337158	1044.215820	-182.986984	2196.692871	1323.522827	-193.702209	2421.861328	1231.460571	-201.786438	2438.616211	622.470154	3.474213	2463.931152	510.284424	-47.355759	2386.183594	301.752472	-3.295846	2326.923828	101.654274	-71.847458	2293.323730	98.303123	-120.994911	2466.557617	39.454697	-77.601791	2310.389648	551.643250	-374.067230	2287.576416	470.314636	-295.959442	2210.771240	246.590790	-335.692993	2158.072754	59.461674	-258.512695	2117.497314	70.720139	-213.391235	2309.796875	25.434710	-238.688599
241	2.40000000	2357.009033	1406.147583	16.042812	2344.732422	1420.717285	-397.261566	2283.253174	1502.410889	-183.507004	2403.318115	1378.094482	-191.103699	2228.713379	1091.902466	53.290546	2328.390137	1079.217163	-449.007507	2293.146118	828.448639	67.472801	2458.847534	845.557617	-424.990158	2384.713379	983.488403	-72.223953	2393.702637	981.408569	-309.479980	2218.455566	1043.118042	-182.176254	2209.540039	1322.106445	-193.028671	2435.039062	1229.864868	-201.254028	2453.937988	622.282043	3.715917	2480.825928	509.919281	-46.785397	2414.817383	297.318451	-1.852293	2368.246826	93.935959	-69.511917	2334.692139	88.654495	-118.861115	2511.080566	39.758183	-76.026352	2316.171143	550.591614	-373.946350	2291.656494	469.540192	-295.803101	2211.775879	246.587387	-334.884674	2158.187256	59.878048	-257.084900	2118.095947	71.421501	-211.592712	2309.854492	25.448786	-238.636841
242	2.41000000	2369.947510	1404.054932	16.938608	2358.154785	1419.309448	-396.297546	2296.690674	1500.618652	-182.580231	2416.629395	1376.241943	-190.269836	2240.147705	1090.442871	53.778305	2347.137695	1078.145508	-450.423523	2303.337036	826.642883	68.181999	2483.014893	848.006287	-422.232162	2398.124512	981.456360	-71.965286	2406.651855	979.360718	-309.310089	2230.750244	1041.712769	-181.331985	2221.426758	1320.638062	-191.895554	2448.281494	1227.982544	-200.680283	2468.338867	621.373901	4.042833	2497.018311	509.013367	-46.188419	2443.318848	293.096588	-0.342978	2409.895752	87.142471	-67.160851	2376.451416	79.978386	-116.712914	2555.447754	41.109402	-74.883797	2322.041992	549.399963	-373.738281	2296.009033	468.701202	-295.549286	2212.845703	246.607971	-333.899811	2158.305420	60.368820	-255.484390	2118.758057	72.211510	-209.598694	2309.886475	25.468256	-238.548386
243	2.42000000	2382.949463	1401.689819	17.887217	2371.589111	1417.611938	-395.312500	2310.194092	1498.573120	-181.607651	2429.990967	1374.121704	-189.400513	2251.779785	1088.657593	54.327553	2365.812500	1076.864624	-451.671417	2313.791260	824.507782	68.901424	2506.924194	850.342621	-419.427597	2411.640381	979.079346	-71.682999	2419.610596	977.111023	-309.153778	2243.318848	1039.996826	-180.482147	2232.495850	1319.121338	-190.353119	2461.593262	1225.840942	-200.064926	2481.781494	619.724426	4.489783	2512.554443	507.616760	-45.583149	2471.626709	289.208496	1.206340	2451.619385	81.416100	-64.854622	2418.333984	72.406258	-114.536674	2599.421631	43.608360	-74.197624	2328.003662	548.103333	-373.474304	2300.635742	467.806000	-295.211426	2214.052490	246.666855	-332.801361	2158.440186	60.946060	-253.776703	2119.480469	73.103363	-207.487717	2309.895508	25.493233	-238.429337
244	2.43000000	2396.022705	1399.078491	18.885891	2385.062012	1415.652222	-394.301483	2323.769775	1496.312134	-180.586838	2443.406494	1371.766479	-188.493729	2263.613525	1086.569458	54.927807	2384.388916	1075.388062	-452.718781	2324.526489	822.087921	69.657269	2530.538940	852.544922	-416.593384	2425.298828	976.402100	-71.394547	2432.601074	974.692871	-309.022552	2256.185791	1037.996582	-179.624390	2243.015869	1317.535034	-188.506348	2474.977783	1223.473633	-199.407913	2494.273926	617.335510	5.084935	2527.497803	505.787323	-44.998795	2499.632080	285.749207	2.751148	2493.073975	76.852791	-62.662189	2459.993408	66.019081	-112.341331	2642.684814	47.293087	-73.937004	2334.080811	546.745728	-373.187683	2305.538330	466.870697	-294.812500	2215.463867	246.786758	-331.668304	2158.607422	61.626049	-252.045258	2120.257812	74.117760	-205.361725	2309.890869	25.524788	-238.296875
245	2.44000000	2409.174561	1396.250488	19.931870	2398.600586	1413.463745	-393.257690	2337.422119	1493.880005	-179.513336	2456.880859	1369.217285	-187.545975	2275.656006	1084.207275	55.571098	2402.847900	1073.734619	-453.540161	2335.556396	819.429718	70.465405	2553.819580	854.594452	-413.745621	2439.131348	973.477539	-71.114662	2445.654541	972.147949	-308.921600	2269.317871	1035.758667	-178.733231	2253.341309	1315.842651	-186.489700	2488.436768	1220.921387	-198.709213	2505.900146	614.240112	5.844702	2541.925537	503.586945	-44.472576	2527.166016	282.767212	4.229014	2533.829590	73.482620	-60.653358	2501.015137	60.840904	-110.188660	2684.840576	52.107693	-74.016144	2340.319336	545.372986	-372.911377	2310.728027	465.915741	-294.382660	2217.128662	246.997421	-330.578033	2158.824707	62.431614	-250.387955	2121.082520	75.283188	-203.340607	2309.882324	25.562269	-238.172333
246	2.45000000	2422.413086	1393.241455	21.024258	2412.230713	1411.088013	-392.172363	2351.156738	1491.323608	-178.380615	2470.421387	1366.521118	-186.552032	2287.919434	1081.605591	56.251343	2421.176270	1071.931519	-454.115234	2346.886597	816.574829	71.329334	2576.722046	856.475159	-410.897308	2453.158447	970.366577	-70.852638	2458.803467	969.521912	-308.853058	2282.649658	1033.340454	-177.772934	2263.861328	1314.004883	-184.442596	2501.971436	1218.230835	-197.968185	2516.840576	610.511902	6.768531	2555.923340	501.080566	-44.041271	2553.993164	280.249603	5.562324	2573.388428	71.251953	-58.900818	2540.927979	56.832138	-108.199463	2725.427246	57.876808	-74.302795	2346.785156	544.025696	-372.674805	2316.229736	464.959625	-293.954681	2219.088623	247.328094	-329.602570	2159.112061	63.389824	-248.909836	2121.945312	76.634514	-201.552704	2309.874023	25.599747	-238.071060
247	2.46000000	2435.747070	1390.093750	22.165426	2425.973389	1408.573975	-391.033875	2364.977051	1488.689575	-177.180984	2484.036865	1363.728516	-185.504715	2300.419189	1078.803955	56.964581	2439.364746	1070.014771	-454.427704	2358.520264	813.561554	72.245979	2599.199219	858.174286	-408.057983	2467.387939	967.136230	-70.610359	2472.077881	966.859314	-308.814728	2296.100830	1030.804077	-176.705170	2274.938232	1311.991943	-182.491592	2515.585693	1215.453247	-197.183319	2527.373291	606.274109	7.833068	2569.583984	498.336487	-43.729366	2579.811035	278.117615	6.664059	2611.203369	70.010551	-57.489506	2579.215088	53.883522	-106.534203	2763.946777	64.293770	-74.640030	2353.564941	542.731689	-372.499603	2322.087891	464.012970	-293.558807	2221.397949	247.799347	-328.810455	2159.491943	64.529404	-247.714615	2122.839355	78.210503	-200.122147	2309.866455	25.627998	-238.002335
248	2.47000000	2449.185547	1386.855835	23.360416	2439.844482	1405.978149	-389.828125	2378.885254	1486.022217	-175.907150	2497.737549	1360.890747	-184.394897	2313.173584	1075.846680	57.710354	2457.403320	1068.028320	-454.464996	2370.462280	810.428436	73.209469	2621.204346	859.684692	-405.235733	2481.816650	963.857300	-70.381660	2485.506836	964.199829	-308.797699	2309.611328	1028.208252	-175.502991	2286.847168	1309.795166	-180.732437	2529.287842	1212.641968	-196.351395	2537.850098	601.705200	8.986479	2583.006104	495.427124	-43.540436	2604.264160	276.234985	7.447180	2646.704834	69.512794	-56.520836	2615.333252	51.817978	-105.369240	2799.898193	70.925377	-74.879776	2360.763916	541.500488	-372.397552	2328.365234	463.076385	-293.218109	2224.128174	248.419647	-328.262054	2159.987793	65.879799	-246.893936	2123.764404	80.051025	-199.155167	2309.862061	25.640175	-237.976196
